<svg width="385" height="50" viewBox="0 0 385 50" fill="none" xmlns="http://www.w3.org/2000/svg">
<path d="M354.3 39.248V15.952C354.3 8.99734 357.777 5.52 364.732 5.52H373.692C380.647 5.52 384.124 8.99734 384.124 15.952V39.248C384.124 46.2027 380.647 49.68 373.692 49.68H364.732C357.777 49.68 354.3 46.2027 354.3 39.248ZM362.172 39.824C362.172 41.6587 363.089 42.576 364.924 42.576H373.5C375.335 42.576 376.252 41.6587 376.252 39.824V15.376C376.252 13.5413 375.335 12.624 373.5 12.624H364.924C363.089 12.624 362.172 13.5413 362.172 15.376V39.824Z" fill="#ECFDF5"/>
<path d="M314.741 39.568V26.192C314.741 19.4507 318.112 16.08 324.853 16.08H333.173C339.872 16.08 343.221 19.4507 343.221 26.192V35.664H322.229V40.208C322.229 42.1707 323.211 43.152 325.173 43.152H341.941V47.184L338.549 49.68H324.853C318.112 49.68 314.741 46.3093 314.741 39.568ZM322.229 29.84H335.733V25.552C335.733 23.5893 334.752 22.608 332.789 22.608H325.173C323.211 22.608 322.229 23.5893 322.229 25.552V29.84Z" fill="#ECFDF5"/>
<path d="M260.309 49.68V0H269.885L291.917 35.424V0H300.701V49.68H291.197L269.093 14.256V49.68H260.309Z" fill="#ECFDF5"/>
<path d="M229.096 39.568V5.52H236.584V16.08H248.04V22.608H236.584V40.208C236.584 42.1707 237.565 43.152 239.528 43.152H248.68V47.184L245.288 49.68H239.208C232.467 49.68 229.096 46.3093 229.096 39.568Z" fill="#ECFDF5"/>
<path d="M188.339 49.68V16.08H206.771C213.47 16.08 216.819 19.4507 216.819 26.192V49.68H209.331V25.552C209.331 23.5893 208.35 22.608 206.387 22.608H195.827V49.68H188.339Z" fill="#ECFDF5"/>
<path d="M158.459 49.68C151.718 49.68 148.347 46.352 148.347 39.696C148.347 33.04 151.718 29.712 158.459 29.712H168.315V25.552C168.315 23.5893 167.334 22.608 165.371 22.608H151.803V18.576L155.131 16.08H165.755C172.454 16.08 175.803 19.4507 175.803 26.192V49.68H158.459ZM155.835 40.208C155.835 42.1707 156.817 43.152 158.779 43.152H168.315V35.536H158.779C156.817 35.536 155.835 36.496 155.835 38.416V40.208Z" fill="#ECFDF5"/>
<path d="M120.246 39.568V5.52H127.734V16.08H139.19V22.608H127.734V40.208C127.734 42.1707 128.715 43.152 130.678 43.152H139.83V47.184L136.438 49.68H130.358C123.617 49.68 120.246 46.3093 120.246 39.568Z" fill="#ECFDF5"/>
<path d="M83.7734 47.184V43.152H98.5574C100.52 43.152 101.501 42.1067 101.501 40.016C101.501 37.84 100.691 36.6027 99.0694 36.304L91.9014 35.152C86.4828 34.2133 83.7734 31.1413 83.7734 25.936C83.7734 19.3653 87.1441 16.08 93.8854 16.08H104.061L107.453 18.576V22.608H94.2054C92.2001 22.608 91.1974 23.6533 91.1974 25.744C91.1974 27.8347 92.0508 29.0293 93.7574 29.328L100.925 30.48C106.301 31.376 108.989 34.4693 108.989 39.76C108.989 46.3733 105.597 49.68 98.8134 49.68H87.1654L83.7734 47.184Z" fill="#ECFDF5"/>
<path d="M43.9768 49.68V16.08H62.4088C69.1075 16.08 72.4568 19.4507 72.4568 26.192V49.68H64.9688V25.552C64.9688 23.5893 63.9875 22.608 62.0248 22.608H51.4648V49.68H43.9768Z" fill="#ECFDF5"/>
<path d="M0 49.68V41.688H11.52V7.992H2.088V3.312L6.336 0H20.304V41.688H30.672V49.68H0Z" fill="#ECFDF5"/>
<path d="M380.952 15.1102L361.638 44.4082C359.18 43.9766 357.952 42.5931 357.952 40.2576V39.7811L377.136 10.68C379.68 11.0853 380.952 12.4761 380.952 14.8524V15.1102Z" fill="#ECFDF5"/>
<path d="M380.952 15.1102L361.638 44.4082C359.18 43.9766 357.952 42.5931 357.952 40.2576V39.7811L377.136 10.68C379.68 11.0853 380.952 12.4761 380.952 14.8524V15.1102Z" fill="#ECFDF5"/>
</svg>
